# xmcd CD database file
#
# Track frame offsets:
#	150
#	24475
#	47800
#	66907
#	100362
#	130195
#	158552
#	188845
#	218695
#
# Disc length: 3222 seconds
#
# Revision: 0
# Processed by: cddbd v1.5.2PL0 Copyright (c) Steve Scherf et al.
# Submitted via: CDex 1.70beta2
#
DISCID=770c9409
DTITLE=Junky Funk - Bird's Eye Prospects
DYEAR=2002
DGENRE=Jazz
TTITLE0=Straight Flash
TTITLE1=Ondo Ondo
TTITLE2=Funky Funk
TTITLE3=Vinterhavn
TTITLE4=Far East Jingle
TTITLE5=Cyberjaya
TTITLE6=Bird's Eye Prospects
TTITLE7=Sarajevo
TTITLE8=Bird's Eye Prospects(remix)
EXTD=YEAR: 2002
EXTT0=
EXTT1=
EXTT2=
EXTT3=
EXTT4=
EXTT5=
EXTT6=
EXTT7=
EXTT8=
PLAYORDER=
